<svg xmlns="http://www.w3.org/2000/svg" xmlns:svg="http://www.w3.org/2000/svg" xmlns:xlink="http://www.w3.org/1999/xlink" id="svg4569" width="16" height="16" version="1.0"><metadata id="metadata42"/><defs id="defs4571"><linearGradient id="linearGradient3912"><stop style="stop-color:#787878;stop-opacity:1" id="stop3914" offset="0"/><stop style="stop-color:#bebebe;stop-opacity:1" id="stop3916" offset=".35"/><stop style="stop-color:#c8c8c8;stop-opacity:1" id="stop3918" offset=".494"/><stop style="stop-color:#e6e6e6;stop-opacity:1" id="stop3920" offset=".589"/><stop style="stop-color:#8c8c8c;stop-opacity:1" id="stop3922" offset="1"/></linearGradient><linearGradient id="linearGradient3342"><stop style="stop-color:#fff;stop-opacity:0" id="stop3344" offset="0"/><stop style="stop-color:#fff;stop-opacity:1" id="stop3346" offset="1"/></linearGradient><linearGradient id="linearGradient2448" x1="15.574" x2="23.578" y1="46.971" y2="46.971" gradientTransform="matrix(0.372549,0,0,0.3333333,-0.7839889,-1.1570001)" gradientUnits="userSpaceOnUse" spreadMethod="reflect" xlink:href="#linearGradient3342"/><linearGradient id="linearGradient2451" x1="361.106" x2="361.106" y1="87.05" y2="94.396" gradientTransform="matrix(0.3671886,0,0,0.4851158,-123.51526,-30.342164)" gradientUnits="userSpaceOnUse" xlink:href="#linearGradient3912"/><linearGradient id="linearGradient3924-1"><stop style="stop-color:#fff;stop-opacity:1" id="stop3926-3" offset="0"/><stop style="stop-color:#fff;stop-opacity:.23529412" id="stop3928-91" offset=".02"/><stop style="stop-color:#fff;stop-opacity:.15686275" id="stop3930-6" offset=".975"/><stop style="stop-color:#fff;stop-opacity:.39215687" id="stop3932-6" offset="1"/></linearGradient><linearGradient id="outerBackgroundGradient-5-0"><stop style="stop-color:#261e2b;stop-opacity:1" id="stop3864-8-6-4" offset="0"/><stop style="stop-color:#352f39;stop-opacity:1" id="stop3866-9-1-86" offset="1"/></linearGradient><linearGradient id="linearGradient3880"><stop style="stop-color:#fff;stop-opacity:1" id="stop3883" offset="0"/><stop style="stop-color:#fff;stop-opacity:0" id="stop3885" offset="1"/></linearGradient><linearGradient id="linearGradient3197" x1="10" x2="20" y1="-3" y2="12" gradientTransform="matrix(0.35000006,0,0,0.55555552,0.64999951,6.4444849)" gradientUnits="userSpaceOnUse" xlink:href="#linearGradient3880"/><linearGradient id="linearGradient3200" x1="24" x2="24" y1="7.557" y2="40.546" gradientTransform="matrix(0.35135142,0,0,0.24324323,-0.43243473,1.1622054)" gradientUnits="userSpaceOnUse" xlink:href="#linearGradient3924-1"/><linearGradient id="linearGradient3204" x1="15" x2="15" y1="24.619" y2="2" gradientTransform="matrix(0.30000006,0,0,0.34782609,1.6999995,5.7826495)" gradientUnits="userSpaceOnUse" xlink:href="#outerBackgroundGradient-5-0"/><radialGradient id="radialGradient4407" cx="15" cy="1039.7" r="3.527" fx="15" fy="1039.7" gradientTransform="matrix(-0.39994776,-0.79806438,-1.1998291,0.59855136,1276.2546,-586.23106)" gradientUnits="userSpaceOnUse" xlink:href="#linearGradient3764"/><linearGradient id="linearGradient3764"><stop id="stop3766" offset="0" style="stop-color:#d1d1d1;stop-opacity:1"/><stop id="stop3768" offset="1" style="stop-color:#eaeaea;stop-opacity:1"/></linearGradient><radialGradient id="radialGradient4409" cx="15" cy="1039.7" r="3.527" fx="15" fy="1039.7" gradientTransform="matrix(0.39994776,-0.79806438,1.1998291,0.59855136,-1225.064,-586.23106)" gradientUnits="userSpaceOnUse" xlink:href="#linearGradient3764"/><radialGradient id="radialGradient4411" cx="8.863" cy="9.994" r="12.672" fx="8.863" fy="9.994" gradientTransform="matrix(0,2.0856738,-2.5766464,0,51.561592,1.9538421)" gradientUnits="userSpaceOnUse" xlink:href="#linearGradient3242-7-6"/><linearGradient id="linearGradient3242-7-6"><stop id="stop3244-6-4" offset="0" style="stop-color:#f89b7e;stop-opacity:1"/><stop id="stop3246-7-5" offset=".262" style="stop-color:#e35d4f;stop-opacity:1"/><stop id="stop3248-8-6" offset=".661" style="stop-color:#c6262e;stop-opacity:1"/><stop id="stop3250-6-8" offset="1" style="stop-color:#690b2c;stop-opacity:1"/></linearGradient><linearGradient id="linearGradient4413" x1="55.987" x2="56.969" y1="39.969" y2="40.586" gradientTransform="matrix(0.45322724,0,0,0.46248718,2.9687467,2.9029638)" gradientUnits="userSpaceOnUse" xlink:href="#linearGradient3880"/><linearGradient id="linearGradient1113" x1="55.987" x2="56.969" y1="39.969" y2="40.586" gradientTransform="matrix(-0.41287028,0,0,0.42130569,45.873249,4.4875969)" gradientUnits="userSpaceOnUse" xlink:href="#linearGradient3880"/></defs><path style="fill:url(#linearGradient2451);fill-opacity:1;fill-rule:nonzero;stroke:none;stroke-width:.99827456000000003;stroke-linecap:round;stroke-linejoin:round;stroke-miterlimit:4;stroke-opacity:1;stroke-dasharray:none;stroke-dashoffset:.50000001000000005;marker:none;visibility:visible;display:inline;overflow:visible;enable-background:new" id="rect1789" d="m 5.737139,11.499138 c 0,0 0.052245,1.828279 -0.208336,2.309651 -0.2605807,0.481371 -0.7790887,0.486985 -0.7790887,0.486985 -0.3327249,0.05057 -0.3354774,1.205089 0,1.205089 l 6.5005457,0 c 0.335478,0 0.332795,-1.155162 0,-1.205089 0,0 -0.518486,-0.0056 -0.779062,-0.486985 -0.260577,-0.481372 -0.208362,-2.309651 -0.208362,-2.309651 l -4.525697,0 0,0 z"/><path style="fill:none;stroke:url(#linearGradient2448);stroke-width:1px;stroke-linecap:square;stroke-linejoin:miter;stroke-opacity:1" id="path3340" d="m 5.2043261,14.499999 5.5913479,0"/><path style="fill:none;fill-opacity:1;fill-rule:nonzero;stroke:#000;stroke-width:.99827462;stroke-linecap:round;stroke-linejoin:round;stroke-miterlimit:4;stroke-opacity:1;stroke-dasharray:none;stroke-dashoffset:.50000001000000005;marker:none;visibility:visible;display:inline;overflow:visible;enable-background:new;opacity:.40000000000000002;color:#000" id="rect1789-1" d="m 5.737139,11.499138 c 0,0 0.052245,1.828279 -0.208336,2.309651 -0.2605807,0.481371 -0.7790887,0.486985 -0.7790887,0.486985 -0.3327249,0.05057 -0.3354774,1.205089 0,1.205089 l 6.5005457,0 c 0.335478,0 0.332795,-1.155162 0,-1.205089 0,0 -0.518486,-0.0056 -0.779062,-0.486985 -0.260577,-0.481372 -0.208362,-2.309651 -0.208362,-2.309651 l -4.525697,0 0,0 z"/><rect style="fill:#1a1a1a;fill-opacity:1;stroke:#000;stroke-width:1;stroke-linecap:round;stroke-linejoin:round;stroke-miterlimit:4;stroke-opacity:1;stroke-dasharray:none;stroke-dashoffset:.50000001" id="rect2722" width="15" height="11" x=".5" y="1.5" rx=".333" ry=".333"/><rect style="opacity:.2;fill:none;stroke:url(#linearGradient3200);stroke-width:.99999994;stroke-linecap:round;stroke-linejoin:round;stroke-miterlimit:4;stroke-opacity:1;stroke-dasharray:none;stroke-dashoffset:0" id="rect6741" width="13" height="9" x="1.5" y="2.5" rx="0" ry="0"/><path id="rect2722-0" d="m 2.0000005,3.0000405 11.9999995,0 0,7.9999995 -11.9999995,0 z" style="fill:url(#linearGradient3204);fill-opacity:1;stroke:none;display:inline"/><path id="path3942" d="m 2.0000002,3.0000405 0,7.9999995 11.9999998,0 0,-7.9999995 z M 3,4.0001197 l 10,0 0,6.0000003 -10,0 z" style="opacity:.2;fill:#000;fill-opacity:1;stroke:none;display:inline"/><path id="rect3872" d="m 1.0000005,2.0000406 0,10.0000004 L 15,4.7083739 15,2.0000406 z" style="opacity:.2;fill:url(#linearGradient3197);fill-opacity:1;stroke:none;display:inline"/><g id="g1172"><g style="opacity:.2;stroke:#000;stroke-width:1.52508008;stroke-linejoin:round;stroke-opacity:1" id="g1148" transform="matrix(0.65216929,0,0,0.65925644,0.06523819,1.3714997)"><path style="fill:none;stroke:#000;stroke-width:1.52508008px;stroke-linecap:butt;stroke-linejoin:round;stroke-opacity:1" id="path1128" d="M 16.766754,4.7413882 H 19.06677 V 7.0166789"/><path style="fill:none;stroke:#000;stroke-width:1.52508008px;stroke-linecap:butt;stroke-linejoin:round;stroke-opacity:1" id="path1130" d="M 19.06677,8.5335393 V 10.0504"/><path style="fill:none;stroke:#000;stroke-width:1.52508008px;stroke-linecap:butt;stroke-linejoin:round;stroke-opacity:1" id="path1132" d="m 19.06677,11.56726 v 2.275291 h -2.300016"/><path style="fill:none;stroke:#000;stroke-width:1.52508008px;stroke-linecap:butt;stroke-linejoin:round;stroke-opacity:1" id="path1134" d="M 7.5666884,13.842551 H 5.2666721 V 11.56726"/><path style="fill:none;stroke:#000;stroke-width:1.52508008px;stroke-linecap:butt;stroke-linejoin:round;stroke-opacity:1" id="path1136" d="M 5.2666721,10.0504 V 8.5335393"/><path style="fill:none;stroke:#000;stroke-width:1.52508008px;stroke-linecap:butt;stroke-linejoin:round;stroke-opacity:1" id="path1138" d="M 5.2666721,7.0166789 V 4.7413882 h 2.3000163"/><path style="fill:none;stroke:#000;stroke-width:1.52508008px;stroke-linecap:butt;stroke-linejoin:round;stroke-opacity:1" id="path1140" d="M 9.1000326,4.7413882 H 12.166721"/><path id="path1142" d="m 12.166721,13.842551 h 3.066688" style="fill:none;stroke:#000;stroke-width:1.52508008px;stroke-linecap:butt;stroke-linejoin:round;stroke-opacity:1"/><path id="path1144" d="M 9.8667047,14.600981 V 13.08412" style="fill:none;stroke:#000;stroke-width:1.52508008px;stroke-linecap:butt;stroke-linejoin:round;stroke-opacity:1"/><path style="fill:none;stroke:#000;stroke-width:1.52508008px;stroke-linecap:butt;stroke-linejoin:round;stroke-opacity:1" id="path1146" d="M 14.466737,5.499819 V 3.982958"/></g><g id="g1063" transform="matrix(0.65216929,0,0,0.65925644,0.06523819,0.37420928)" style="opacity:.5;stroke:#fff;stroke-width:1.52508008;stroke-linejoin:round;stroke-opacity:1"><path id="path1029" d="M 16.766754,4.7413882 H 19.06677 V 7.0166789" style="fill:none;stroke:#fff;stroke-width:1.52508008px;stroke-linecap:butt;stroke-linejoin:round;stroke-opacity:1"/><path id="path1031" d="M 19.06677,8.5335393 V 10.0504" style="fill:none;stroke:#fff;stroke-width:1.52508008px;stroke-linecap:butt;stroke-linejoin:round;stroke-opacity:1"/><path id="path1035" d="m 19.06677,11.56726 v 2.275291 h -2.300016" style="fill:none;stroke:#fff;stroke-width:1.52508008px;stroke-linecap:butt;stroke-linejoin:round;stroke-opacity:1"/><path id="path1039" d="M 7.5666884,13.842551 H 5.2666721 V 11.56726" style="fill:none;stroke:#fff;stroke-width:1.52508008px;stroke-linecap:butt;stroke-linejoin:round;stroke-opacity:1"/><path id="path1041" d="M 5.2666721,10.0504 V 8.5335393" style="fill:none;stroke:#fff;stroke-width:1.52508008px;stroke-linecap:butt;stroke-linejoin:round;stroke-opacity:1"/><path id="path1043" d="M 5.2666721,7.0166789 V 4.7413882 h 2.3000163" style="fill:none;stroke:#fff;stroke-width:1.52508008px;stroke-linecap:butt;stroke-linejoin:round;stroke-opacity:1"/><path id="path1045" d="M 9.1000326,4.7413882 H 12.166721" style="fill:none;stroke:#fff;stroke-width:1.52508008px;stroke-linecap:butt;stroke-linejoin:round;stroke-opacity:1"/><path style="fill:none;stroke:#fff;stroke-width:1.52508008px;stroke-linecap:butt;stroke-linejoin:round;stroke-opacity:1" id="path1078" d="m 12.166721,13.842551 h 3.066688"/><path style="fill:none;stroke:#fff;stroke-width:1.52508008px;stroke-linecap:butt;stroke-linejoin:round;stroke-opacity:1" id="path1080" d="M 9.8667047,14.600981 V 13.08412"/><path id="path1082" d="M 14.466737,5.499819 V 3.982958" style="fill:none;stroke:#fff;stroke-width:1.52508008px;stroke-linecap:butt;stroke-linejoin:round;stroke-opacity:1"/></g></g><g id="g4397" transform="matrix(0.84406958,0,0,0.73536309,-10.58863,-7.6306311)" style="stroke-width:1.42177546"><path id="path3782" d="m 25.261533,24.111839 -3.737787,-6.895616 c 0,0 -2.609397,5.488347 3.737787,9.006519 z" style="fill:url(#radialGradient4407);fill-opacity:1;stroke:none;stroke-width:1.42177546"/><path id="path2990" d="m 25.929176,24.111839 3.737786,-6.895616 c 0,0 2.609399,5.488347 -3.737786,9.006519 z" style="fill:url(#radialGradient4409);fill-opacity:1;stroke:none;stroke-width:1.42177546"/><path id="path3788" d="m 23.857525,26.222742 c -0.973509,0.05182 -3.570293,0.64117 -3.570293,2.462721 0,2.081701 1.542697,2.814537 2.468351,2.814537 0.925653,0 2.432439,-0.703916 2.468349,-2.814537 0.02862,-1.68253 -0.574964,-2.359146 -1.057864,-2.462721 -0.06036,-0.01295 -0.169471,-0.0074 -0.308543,0 z m 3.129515,0 c -0.4829,0.103577 -1.086491,0.780191 -1.057864,2.462721 0.03592,2.110621 1.542696,2.814537 2.468349,2.814537 0.925654,0 2.468351,-0.732836 2.468351,-2.814537 0,-2.081773 -3.395937,-2.566295 -3.878836,-2.462721 z m -3.129515,1.319315 c 0,0 0.309098,3.612247 -1.586797,2.198857 -2.108225,-1.571638 1.586797,-2.198857 1.586797,-2.198857 z m 3.438058,0 c 0,0 3.695022,0.627219 1.586796,2.198857 -1.895894,1.41339 -1.586796,-2.198857 -1.586796,-2.198857 z" style="color:#000;display:inline;overflow:visible;visibility:visible;fill:url(#radialGradient4411);fill-opacity:1;fill-rule:nonzero;stroke:none;stroke-width:1.42177522;marker:none;enable-background:accumulate"/><path id="path3782-0" d="m 25.261533,24.111839 -3.737787,-6.895617 c 0,0 -2.609398,5.488349 3.737787,9.006521 z" style="opacity:.5;fill:none;stroke:#000;stroke-width:1.26928794px;stroke-linecap:butt;stroke-linejoin:miter;stroke-opacity:1"/><path id="path2990-3" d="m 25.929175,24.111839 3.737787,-6.895617 c 0,0 2.609398,5.488349 -3.737787,9.006521 z" style="opacity:.5;fill:none;stroke:#000;stroke-width:1.26928794px;stroke-linecap:butt;stroke-linejoin:miter;stroke-opacity:1"/><path id="path4683" d="m 29.131046,20.422066 -2.271796,4.455495 -4e-5,0.457721 c 1.929278,-1.830883 2.374217,-3.370225 2.374217,-3.661767 0,-0.457721 -0.170244,-0.773841 -0.08273,-1.109849 z" style="fill:none;stroke:url(#linearGradient4413);stroke-width:1.26928759px;stroke-linecap:butt;stroke-linejoin:miter;stroke-opacity:1"/><path id="path3788-5" d="m 23.857524,26.222743 c -0.973508,0.05182 -3.570292,0.641169 -3.570292,2.462719 0,2.081703 1.542696,2.814538 2.46835,2.814538 0.925654,0 2.432439,-0.703916 2.46835,-2.814538 0.02862,-1.682529 -0.574964,-2.359145 -1.057864,-2.462719 -0.06036,-0.01295 -0.169471,-0.0074 -0.308544,0 z m 3.129515,0 c -0.4829,0.103577 -1.08649,0.78019 -1.057864,2.462719 0.03592,2.110622 1.542696,2.814538 2.468351,2.814538 0.925653,0 2.468349,-0.732835 2.468349,-2.814538 0,-2.081771 -3.395936,-2.566294 -3.878836,-2.462719 z m -3.129515,1.319313 c 0,0 0.309098,3.612249 -1.586796,2.198857 -2.108225,-1.571636 1.586796,-2.198857 1.586796,-2.198857 z m 3.438059,0 c 0,0 3.695021,0.627221 1.586797,2.198857 -1.895895,1.413392 -1.586797,-2.198857 -1.586797,-2.198857 z" style="color:#000;display:inline;overflow:visible;visibility:visible;opacity:.4;fill:none;stroke:#640000;stroke-width:1.26928794;stroke-linecap:round;stroke-linejoin:round;stroke-miterlimit:4;stroke-dasharray:none;stroke-dashoffset:0;stroke-opacity:1;marker:none;enable-background:accumulate"/><path style="fill:none;stroke:url(#linearGradient1113);stroke-width:1.26928759px;stroke-linecap:butt;stroke-linejoin:miter;stroke-opacity:1" id="path1111" d="m 22.040532,20.446736 2.069508,4.058762 3.6e-5,0.416964 c -1.757488,-1.667855 -2.162808,-3.070129 -2.162808,-3.33571 0,-0.416965 0.155085,-0.704936 0.07536,-1.011024 z"/></g></svg>